<svg xmlns="http://www.w3.org/2000/svg" version="1.0" width="500" height="500" viewBox="0 0 400 600" preserveAspectRatio="xMidYMid meet">
<g transform="translate(0.000000,640.000000) scale(0.100000,-0.100000)" fill="#000000" stroke="none">
<path d="M4227 5720 c-124 -7 -137 -12 -137 -56 0 -19 -8 -22 -67 -29 -38 -4 -80 -14 -96 -21 -31 -16 -81 -81 -103 -133 -49 -116 -155 -552 -275 -1121 -11 -52 -24 -112 -29 -134 -4 -21 -6 -45 -3 -52 4 -12 -118 -14 -791 -14 l-796 0 0 522 0 521 -43 41 c-86 83 -171 91 -977 90 l-635 0 -47 -23 c-64 -30 -161 -131 -195 -200 l-28 -56 -3 -2295 c-2 -1715 1 -2302 9 -2323 25 -60 -16 -58 971 -54 497 1 1319 3 1828 3 509 0 1274 1 1700 1 l775 1 122 40 c426 141 809 425 1087 807 407 558 519 1229 311 1862 -68 208 -180 429 -302 598 l-43 59 87 88 87 88 1 59 c0 45 -5 66 -21 87 -65 88 -128 91 -292 15 -129 -60 -102 -64 -225 39 -56 47 -68 62 -76 100 -6 25 -35 164 -66 310 -104 489 -205 881 -250 970 -48 93 -115 130 -236 130 -34 0 -39 3 -39 23 0 45 -11 50 -152 58 -158 9 -883 9 -1051 -1z m986 -47 c121 -4 167 -9 167 -18 0 -19 -408 -29 -856 -20 -311 6 -384 10 -384 21 0 10 27 14 113 17 235 6 801 7 960 0z m191 -67 c-4 -10 15 -15 81 -18 165 -9 186 -49 320 -603 69 -286 86 -382 31 -178 -41 151 -73 242 -95 267 -18 21 -49 21 -659 -5 -235 -10 -357 -10 -605 0 -612 24 -635 25 -651 12 -39 -32 -103 -255 -190 -659 -23 -111 -46 -205 -50 -209 -15 -15 -14 8 5 97 146 692 240 1070 296 1179 39 76 66 93 157 99 51 3 76 9 76 17 0 10 137 13 644 13 527 1 644 -2 640 -12z m-3924 -326 c255 -13 312 -22 362 -62 l38 -30 0 -134 0 -135 -52 -23 c-124 -55 -374 -82 -643 -71 -255 10 -428 37 -844 131 -214 48 -272 66 -279 82 -8 22 34 95 87 150 78 82 90 86 225 93 213 9 894 9 1106 -1z m3300 -225 c234 0 543 4 687 9 l262 9 21 -49 c12 -27 35 -96 51 -154 35 -124 141 -598 137 -611 -2 -5 -28 8 -58 28 -97 66 -316 169 -452 214 -73 24 -135 44 -137 46 -2 2 3 11 12 20 9 11 17 41 19 73 l3 55 -67 24 -68 23 0 69 0 69 -425 0 -425 0 0 -69 0 -70 -71 -23 -71 -23 5 -54 c3 -31 15 -66 26 -81 l19 -27 -111 -37 c-128 -43 -340 -143 -442 -210 -38 -25 -71 -41 -73 -37 -8 23 121 578 164 707 44 131 7 118 308 108 143 -5 452 -9 686 -9z m-4665 -61 c156 -48 638 -146 830 -169 111 -14 194 -16 405 -12 281 5 356 15 473 62 l57 23 0 -193 0 -192 -52 -7 c-29 -3 -91 -19 -138 -36 l-85 -30 -777 0 -778 0 0 285 c0 157 3 285 8 285 4 0 30 -7 57 -16z m5055 -198 l0 -65 70 -22 70 -23 0 -47 c0 -43 -4 -50 -49 -93 -80 -74 -104 -82 -210 -68 -113 15 -415 15 -553 0 -128 -13 -148 -8 -225 66 -49 45 -53 52 -53 95 l0 47 70 23 70 22 0 65 0 64 405 0 405 0 0 -64z m718 -181 c0 -16 -2 -15 -8 5 -4 14 -8 34 -8 45 0 16 2 15 8 -5 4 -14 8 -34 8 -45z m9 -57 c-3 -7 -5 -2 -5 12 0 14 2 19 5 13 2 -7 2 -19 0 -25z m10 -40 c-3 -8 -6 -5 -6 6 -1 11 2 17 5 13 3 -3 4 -12 1 -19z m-477 -35 c193 -63 550 -257 550 -298 0 -8 5 -15 11 -15 5 0 8 -4 5 -9 -3 -5 16 -26 42 -47 26 -21 69 -58 95 -82 34 -31 52 -41 59 -34 13 13 73 -42 170 -156 52 -60 68 -85 60 -95 -7 -9 3 -30 37 -77 244 -338 379 -724 397 -1135 34 -774 -441 -1560 -1165 -1929 -124 -63 -264 -117 -399 -153 l-97 -26 -435 7 c-466 8 -473 8 -635 66 -298 105 -552 262 -783 484 -399 385 -620 842 -662 1372 -38 487 135 1010 473 1429 77 96 312 325 332 325 8 0 15 4 15 9 0 10 106 89 200 151 101 65 334 175 454 215 l110 35 35 -24 c20 -13 44 -28 54 -33 14 -7 -5 -16 -85 -37 -386 -103 -776 -362 -1040 -690 -507 -629 -604 -1405 -262 -2095 287 -580 836 -1008 1455 -1133 102 -20 141 -23 364 -23 232 1 259 3 376 28 824 175 1491 874 1614 1692 19 128 19 398 0 534 -113 796 -726 1497 -1477 1690 -97 25 -140 41 -111 41 6 0 27 13 48 30 43 34 40 35 195 -17z m-3550 -11 c0 -15 -13 -21 -77 -30 -205 -32 -398 -98 -426 -146 -9 -16 -13 -471 -15 -1863 l-3 -1843 -654 0 -655 0 0 1915 0 1915 787 2 788 3 85 32 c100 37 170 43 170 15z m4037 -4 c-3 -8 -6 -5 -6 6 -1 11 2 17 5 13 3 -3 4 -12 1 -19z m-838 -13 c199 -26 368 -79 558 -172 208 -102 376 -226 553 -409 174 -179 286 -339 391 -559 365 -763 210 -1613 -407 -2230 -297 -298 -677 -497 -1074 -564 -639 -107 -1261 105 -1736 591 -606 621 -750 1466 -378 2217 292 590 842 1010 1469 1122 131 23 462 25 624 4z m848 -27 c-3 -8 -6 -5 -6 6 -1 11 2 17 5 13 3 -3 4 -12 1 -19z m-4047 -1918 l0 -1920 -250 0 -250 0 0 1838 c0 2044 -7 1863 68 1901 68 35 320 98 395 100 l37 1 0 -1920z m4057 1868 c-3 -8 -6 -5 -6 6 -1 11 2 17 5 13 3 -3 4 -12 1 -19z m10 -40 c-3 -8 -6 -5 -6 6 -1 11 2 17 5 13 3 -3 4 -12 1 -19z m10 -60 c-3 -8 -6 -5 -6 6 -1 11 2 17 5 13 3 -3 4 -12 1 -19z m-2614 -266 c-286 -271 -501 -616 -604 -967 -52 -179 -70 -296 -76 -485 -8 -251 11 -401 76 -628 143 -496 473 -933 931 -1230 118 -77 324 -175 477 -227 l128 -44 -425 -1 c-234 0 -759 3 -1167 7 l-743 6 0 1834 0 1833 753 0 752 0 -102 -98z m3215 56 c25 -28 36 -69 27 -105 -3 -15 -39 -59 -81 -98 l-74 -71 -91 104 c-50 57 -89 104 -87 105 14 9 119 57 123 57 2 0 -3 -12 -11 -27 -18 -36 -18 -57 1 -93 35 -68 111 -81 170 -29 30 27 35 37 35 76 0 36 -6 50 -29 74 -16 16 -24 29 -17 29 7 0 22 -10 34 -22z m-47 2 c10 -6 26 -24 35 -41 39 -77 -41 -161 -119 -124 -62 29 -75 98 -28 146 31 31 75 38 112 19z m-5381 -3570 l0 -70 -524 0 c-598 0 -556 -6 -556 86 l0 54 540 0 540 0 0 -70z m230 15 l0 -55 -105 0 -105 0 0 55 0 55 105 0 105 0 0 -55z m520 0 l0 -55 -250 0 -250 0 0 55 0 55 250 0 250 0 0 -55z m-520 -75 c0 -6 -42 -10 -105 -10 -63 0 -105 4 -105 10 0 6 42 10 105 10 63 0 105 -4 105 -10z m505 0 c-4 -6 -97 -10 -246 -10 -153 0 -239 4 -239 10 0 6 89 10 246 10 161 0 243 -3 239 -10z"/>
<path d="M1340 5261 c-92 -28 -141 -75 -160 -154 -11 -41 -10 -51 9 -90 39 -81 145 -136 277 -144 188 -13 304 63 304 199 0 110 -145 199 -322 197 -46 0 -94 -4 -108 -8z m10 -328 c36 -12 85 -25 110 -28 59 -8 162 9 212 35 22 11 37 16 33 10 -8 -14 -72 -45 -110 -54 -16 -4 -63 -7 -104 -7 -127 1 -247 56 -286 131 -12 24 -6 21 32 -18 35 -34 65 -53 113 -69z"/>
<path d="M4396 4793 c3 -16 15 -79 27 -141 l22 -113 314 0 c172 0 315 2 316 3 2 2 13 57 25 123 11 66 23 128 26 138 5 16 -17 17 -365 17 l-370 0 5 -27z m708 -10 c-2 -10 -10 -56 -19 -103 -9 -47 -18 -95 -21 -107 l-4 -23 -300 0 c-165 0 -300 1 -300 3 -1 1 -11 57 -24 125 l-23 122 348 0 c325 0 347 -1 343 -17z"/>
<path d="M4688 4123 c56 -2 148 -2 205 0 56 1 10 3 -103 3 -113 0 -159 -2 -102 -3z"/>
<path d="M4485 4109 c-20 -5 -9 -6 30 -2 33 3 62 7 64 9 8 7 -63 2 -94 -7z"/>
<path d="M5035 4109 c51 -10 92 -10 50 1 -16 4 -43 8 -60 8 -25 0 -24 -2 10 -9z"/>
<path d="M4331 4074 c-382 -113 -722 -373 -946 -724 -50 -78 -149 -277 -159 -320 l-6 -25 11 25 c62 136 136 278 178 340 237 353 571 598 961 705 47 13 76 24 65 24 -11 0 -58 -11 -104 -25z"/>
<path d="M5200 4076 c278 -79 496 -205 704 -405 213 -207 343 -411 436 -688 22 -65 40 -111 40 -101 0 9 -16 63 -36 120 -146 424 -450 771 -853 972 -99 50 -269 111 -336 120 -22 4 -2 -5 45 -18z"/>
<path d="M4620 4060 c-523 -40 -1027 -404 -1274 -920 -110 -230 -149 -398 -149 -640 0 -425 144 -781 440 -1090 240 -250 528 -413 853 -481 124 -26 362 -31 499 -10 603 90 1111 515 1301 1090 60 180 74 288 67 510 -9 269 -45 419 -156 652 -125 264 -380 540 -638 691 -137 81 -295 141 -448 172 -76 15 -321 38 -375 35 -14 -1 -68 -5 -120 -9z m450 -36 c572 -99 1062 -557 1224 -1144 50 -181 65 -494 32 -665 -28 -146 -73 -278 -141 -413 -79 -155 -167 -275 -299 -408 -266 -266 -561 -413 -928 -460 -475 -60 -928 103 -1288 466 -230 231 -379 514 -436 825 -78 430 42 874 334 1237 132 163 350 341 525 430 143 71 327 129 477 147 105 14 387 5 500 -15z"/>
<path d="M4758 3883 c18 -2 45 -2 60 0 15 2 0 4 -33 4 -33 0 -45 -2 -27 -4z"/>
<path d="M4502 3859 c-487 -102 -893 -464 -1053 -938 -16 -47 -29 -92 -29 -100 1 -9 16 29 34 84 74 223 173 383 345 556 243 242 527 380 841 409 84 7 84 7 20 8 -36 0 -107 -8 -158 -19z"/>
<path d="M4861 3876 c2 -2 40 -6 84 -9 57 -4 69 -3 40 3 -40 9 -132 13 -124 6z"/>
<path d="M5116 3836 c349 -93 632 -295 834 -595 49 -73 119 -219 146 -303 9 -32 19 -56 22 -54 14 14 -89 252 -151 347 -143 222 -359 411 -598 523 -104 48 -237 93 -302 101 -23 3 -1 -5 49 -19z"/>
<path d="M4621 3810 c-158 -20 -358 -87 -495 -165 -560 -319 -815 -996 -601 -1595 55 -154 110 -256 210 -385 181 -233 435 -395 743 -473 98 -25 123 -27 302 -27 179 0 204 2 302 27 435 110 765 392 928 792 147 360 133 738 -39 1091 -185 376 -523 634 -945 720 -97 19 -305 27 -405 15z m419 -35 c554 -121 951 -541 1040 -1100 6 -38 11 -124 11 -190 1 -495 -279 -948 -724 -1171 -504 -254 -1122 -152 -1522 253 -323 327 -450 803 -335 1253 89 347 334 658 648 823 139 73 259 113 422 143 98 17 358 11 460 -11z"/>
<path d="M6127 2835 c9 -61 24 -99 17 -45 -4 25 -10 54 -15 65 -6 13 -6 6 -2 -20z"/>
<path d="M3407 2771 c-4 -18 -7 -43 -6 -55 1 -11 5 -1 10 24 5 25 7 49 6 55 -2 5 -7 -5 -10 -24z"/>
<path d="M6152 2710 c0 -19 2 -27 5 -17 2 9 2 25 0 35 -3 9 -5 1 -5 -18z"/>
<path d="M3387 2638 c-4 -29 -6 -102 -5 -163 1 -105 2 -103 8 50 4 88 7 161 5 163 -1 1 -5 -21 -8 -50z"/>
<path d="M6163 2620 c0 -30 2 -43 4 -27 2 15 2 39 0 55 -2 15 -4 2 -4 -28z"/>
<path d="M6167 2436 c-4 -71 -6 -131 -3 -133 6 -6 19 197 14 232 -2 17 -7 -28 -11 -99z"/>
<path d="M3395 2310 c4 -59 34 -204 41 -197 2 2 -3 35 -11 72 -9 37 -20 93 -25 124 l-9 56 4 -55z"/>
<path d="M6141 2219 c-6 -39 -27 -119 -46 -177 -135 -410 -464 -736 -882 -873 -48 -15 -81 -28 -72 -29 27 0 155 47 254 94 333 158 601 464 713 817 31 96 58 226 50 235 -3 2 -10 -28 -17 -67z"/>
<path d="M3440 2094 c0 -21 51 -147 96 -238 133 -265 352 -486 610 -615 151 -76 373 -143 466 -140 18 1 -3 7 -47 14 -503 79 -902 410 -1092 905 -17 47 -32 80 -33 74z"/>
<path d="M5098 1133 c7 -3 16 -2 19 1 4 3 -2 6 -13 5 -11 0 -14 -3 -6 -6z"/>
<path d="M5000 1118 c-25 -5 -115 -13 -200 -17 -149 -8 -151 -8 -50 -9 105 -2 253 12 307 28 39 11 1 10 -57 -2z"/>
<path d="M3206 2985 c-3 -9 -6 -22 -5 -28 0 -7 5 -1 10 12 5 13 8 26 5 28 -2 2 -6 -3 -10 -12z"/>
<path d="M3186 2914 c-4 -14 -5 -28 -3 -31 3 -2 8 8 11 23 4 14 5 28 3 31 -3 2 -8 -8 -11 -23z"/>
<path d="M3161 2818 c-22 -105 -31 -174 -30 -228 2 -46 3 -40 10 32 4 47 14 121 23 164 9 42 14 79 12 81 -2 3 -9 -19 -15 -49z"/>
<path d="M6381 2853 c-1 -7 4 -34 9 -60 6 -26 15 -82 20 -123 l9 -75 -5 80 c-4 70 -30 210 -33 178z"/>
<path d="M6424 2450 c0 -74 1 -105 3 -67 2 37 2 97 0 135 -2 37 -3 6 -3 -68z"/>
<path d="M3122 2490 c0 -19 2 -27 5 -17 2 9 2 25 0 35 -3 9 -5 1 -5 -18z"/>
<path d="M3133 2385 c0 -38 2 -53 4 -32 2 20 2 52 0 70 -2 17 -4 1 -4 -38z"/>
<path d="M3146 2251 c8 -92 47 -237 97 -359 158 -390 474 -720 869 -907 95 -45 267 -105 296 -104 10 0 -23 13 -73 28 -284 88 -515 231 -731 453 -236 241 -385 526 -445 848 -14 80 -18 90 -13 41z"/>
<path d="M6413 2275 c0 -22 2 -30 4 -17 2 12 2 30 0 40 -3 9 -5 -1 -4 -23z"/>
<path d="M6391 2163 c-31 -170 -120 -384 -228 -548 -235 -358 -582 -611 -978 -715 -60 -16 -101 -29 -90 -30 11 0 59 11 107 24 538 148 987 578 1156 1106 32 100 58 217 50 225 -2 3 -10 -25 -17 -62z"/>
<path d="M4450 870 c14 -4 36 -8 50 -8 22 0 22 1 -5 8 -16 4 -39 8 -50 8 -16 0 -15 -2 5 -8z"/>
<path d="M5033 863 c9 -2 23 -2 30 0 6 3 -1 5 -18 5 -16 0 -22 -2 -12 -5z"/>
<path d="M4543 853 c9 -2 25 -2 35 0 9 3 1 5 -18 5 -19 0 -27 -2 -17 -5z"/>
<path d="M4865 850 l-70 -6 60 -1 c33 -1 83 2 110 7 47 7 47 7 10 7 -22 0 -71 -3 -110 -7z"/>
<path d="M4628 843 c17 -2 47 -2 65 0 17 2 3 4 -33 4 -36 0 -50 -2 -32 -4z"/>
<path d="M2685 3900 c-15 -17 -16 -24 -7 -45 20 -43 82 -28 82 20 0 45 -44 59 -75 25z"/>
<path d="M2132 3792 c-62 -58 -47 -147 31 -185 46 -23 94 -11 132 34 38 46 35 101 -9 145 -29 29 -41 34 -79 34 -35 0 -51 -6 -75 -28z"/>
<path d="M2728 3775 c-10 -22 -9 -29 10 -47 18 -19 25 -20 47 -10 16 8 25 20 25 35 0 50 -62 66 -82 22z"/>
<path d="M2522 3018 c-19 -19 -14 -56 8 -68 43 -23 83 17 60 60 -12 22 -49 27 -68 8z"/>
</g>
</svg>